inDegrees=no
num_controls=7
num_derivatives=13
num_iterations=136
num_multipliers=7
num_parameters=0
num_slacks=7
num_states=26
objective=6.300288
objective_accelerations=0.717863
objective_balance=0.069272
objective_effort=0.570353
objective_height=4.849728
objective_ligament=0.093072
solver_duration=1470.348529
status=Solve_Succeeded
success=true
DataType=double
version=3
OpenSimVersion=4.4-2022-07-23-0e9fedc
endheader
time	/jointset/ground_pelvis/pelvis_tilt/value	/jointset/ground_pelvis/pelvis_tx/value	/jointset/ground_pelvis/pelvis_ty/value	/jointset/hip_l/hip_flexion_l/value	/jointset/hip_l/hip_adduction_l/value	/jointset/hip_l/hip_rotation_l/value	/jointset/back/lumbar_extension/value	/jointset/patellofemoral_l/patellar_flexion_l/value	/jointset/knee_l/knee_flexion_l/value	/jointset/knee_l/knee_adduction_l/value	/jointset/knee_l/knee_rotation_l/value	/jointset/ankle_l/ankle_angle_l/value	/jointset/subtalar_l/subtalar_angle_l/value	/jointset/ground_pelvis/pelvis_tilt/speed	/jointset/ground_pelvis/pelvis_tx/speed	/jointset/ground_pelvis/pelvis_ty/speed	/jointset/hip_l/hip_flexion_l/speed	/jointset/hip_l/hip_adduction_l/speed	/jointset/hip_l/hip_rotation_l/speed	/jointset/back/lumbar_extension/speed	/jointset/patellofemoral_l/patellar_flexion_l/speed	/jointset/knee_l/knee_flexion_l/speed	/jointset/knee_l/knee_adduction_l/speed	/jointset/knee_l/knee_rotation_l/speed	/jointset/ankle_l/ankle_angle_l/speed	/jointset/subtalar_l/subtalar_angle_l/speed	/forceset/tau_hip_flexion_l	/forceset/tau_hip_adduction_l	/forceset/tau_hip_rotation_l	/forceset/tau_knee_flexion_l	/forceset/tau_ankle_angle_l	/forceset/tau_subtalar_angle_l	/forceset/tau_lumbar_extension	lambda_cid13_p0	lambda_cid13_p1	lambda_cid13_p2	lambda_cid13_p3	lambda_cid13_p4	lambda_cid13_p5	lambda_cid14_p0	/jointset/ground_pelvis/pelvis_tilt/accel	/jointset/ground_pelvis/pelvis_tx/accel	/jointset/ground_pelvis/pelvis_ty/accel	/jointset/hip_l/hip_flexion_l/accel	/jointset/hip_l/hip_adduction_l/accel	/jointset/hip_l/hip_rotation_l/accel	/jointset/back/lumbar_extension/accel	/jointset/patellofemoral_l/patellar_flexion_l/accel	/jointset/knee_l/knee_flexion_l/accel	/jointset/knee_l/knee_adduction_l/accel	/jointset/knee_l/knee_rotation_l/accel	/jointset/ankle_l/ankle_angle_l/accel	/jointset/subtalar_l/subtalar_angle_l/accel	gamma_cid13_p0	gamma_cid13_p1	gamma_cid13_p2	gamma_cid13_p3	gamma_cid13_p4	gamma_cid13_p5	gamma_cid14_p0
1.5	-0.03716050398459288	-0.02327824585997566	0.8301803051833697	0.7983585654806562	-0.3193468260035903	-0.1162328324529906	-0.8089631421051873	0.8617102068547461	0.8617102068545593	-0.07871332801945495	-0.1744571136950587	0.1655423628649351	0.03221531244721338	0.4343341911096331	0.2411749082839341	0.5229132917340199	-2.317013668885685	0.06816679155478106	-0.6647030157099966	0.83104352946363	-2.221183234940946	-2.221183234941361	-0.205777921409044	-0.0007919316875617049	-0.4763156356385326	-0.09281417291348391	-0.2291372073247907	0.0205242169108593	-0.007706399571554304	-0.2249635936148934	0.06001675125711386	0.04767282061608241	0.2975106440066652	-21.88424939983751	-19.01013474195435	5.018083957794421	-9.895205014918654	-663.1041901236387	-76.25845919441397	-12.10714227858617	0.1636679986650395	0.7940279294304058	-0.739903534099655	-0.8798652396543394	0.5038872584949124	-0.5156714739252609	2.177941585250691	-1.126995429463987	-1.126995429464066	-0.1925084055678115	-0.003421359454516035	-0.4198073156608031	0.4706047431353487	5.623607150988513e-07	4.953353211533183e-07	-3.061651937172828e-06	-2.483232194746563e-07	6.42975030138905e-07	3.785944839280054e-07	4.466826783327662e-07
1.51	-0.03280921698715428	-0.02082696359240117	0.8353714200195742	0.7751462545903826	-0.3186413395081985	-0.1229029980177757	-0.800545281899711	0.8394444622220875	0.8394444622218887	-0.08078487642117702	-0.1744654815480033	0.1607586354797222	0.03130908503235473	0.435855329834754	0.2490596952327377	0.5152006848046231	-2.325153678255358	0.07293325482032267	-0.6692574949424727	0.852426423584417	-2.231658794241853	-2.231658794242224	-0.2085317477162572	-0.0008673216063546287	-0.4803280997844044	-0.08840040225306209	-0.2207261285143276	0.01970396521065801	-0.007472183483621104	-0.2209512683867442	0.06087063702755938	0.04716257439011844	0.2895634950683855	-21.31536187604439	-18.96065173762933	5.093015997212487	-9.862282246530842	-657.5772056834415	-76.29292984499276	-12.97524741508549	0.1362097171937104	0.7823837076680843	-0.8031507744750971	-0.7367736289625336	0.4637717131303785	-0.413983571685379	2.103150118220893	-0.9618933653269524	-0.9618933653200075	-0.3167719433709845	-0.008025196771501767	-0.3766729944275202	0.4316272185795763	5.717728704976803e-07	6.610857335467474e-07	-3.001539935771844e-06	-2.25904287244235e-07	6.710515645403208e-07	4.98979236353936e-07	4.54773115974463e-07
1.52	-0.02844474402095139	-0.01829749752932706	0.8404821664860611	0.7518614026377305	-0.3178880392096334	-0.1296164378596226	-0.7919166553944875	0.8170831505593467	0.817083150559302	-0.08288395352597268	-0.1744742887778469	0.1559378420469787	0.03044796812231731	0.4369713848703043	0.2568116673838569	0.5068396177905081	-2.331521881358565	0.07772955218769957	-0.6733578711260156	0.873196789414397	-2.240296640939688	-2.240296640940014	-0.2112836620263714	-0.0008798070723309063	-0.4837288451453657	-0.08379207194927783	-0.2123150497037924	0.01888371351054874	-0.007237967395498533	-0.2169389431585913	0.06172452279802391	0.04665232816426652	0.2816163461301437	-20.74522960899411	-18.91222199111031	5.169073202660638	-9.882454171602335	-652.0700285837354	-76.4099419773157	-13.82892645889705	0.08265126075028495	0.7674649698938326	-0.8695955510432244	-0.5255039863609235	0.5098540788622058	-0.4248508641381209	2.055435927088942	-0.7594529088497535	-0.7594529088497488	-0.192126006148	0.009159531109465199	-0.2974635586783027	0.5095166718082019	5.763555378918282e-07	8.402378906773044e-07	-2.914974271240664e-06	-2.000333674020238e-07	6.976636735289132e-07	6.149009096443151e-07	4.60810285275383e-07
1.53	-0.02407108047390352	-0.01569122588146718	0.845506168956714	0.7285215566277601	-0.3170867241230759	-0.1363691732231433	-0.7830835433537433	0.7946446081895315	0.7946446081894032	-0.08501026566481623	-0.1744832617284559	0.1510861264547187	0.02963381931870872	0.4376932912384975	0.2644151969359926	0.4978610121542266	-2.336150815488014	0.08253035992202422	-0.6771129244941537	0.8933144074817174	-2.247095080068664	-2.247095080068747	-0.2139805754769552	-0.0009021590263303343	-0.4865044402210196	-0.07901134725236733	-0.2039383662314502	0.01790382985817054	-0.006953794106825862	-0.2131642282722898	0.06267039477563301	0.04592964633251689	0.2737097500771149	-20.17733759384959	-18.75902343512227	5.214585280608792	-9.831272626612089	-646.8920537218162	-76.39175186694931	-14.66652052912267	0.05680534319051616	0.7526462248180867	-0.9268254708436703	-0.3870469811625234	0.4649826105800732	-0.3389183269210475	1.973243058381146	-0.59261981772061	-0.5926198176838741	-0.3086451934639944	-0.006567017569100064	-0.2510856033064252	0.4664399159137505	5.758068742810028e-07	1.033629401591059e-06	-2.80030158963365e-06	-1.704947107222859e-07	7.227198305163805e-07	7.260805613531713e-07	4.646658569642276e-07
1.54	-0.01969222885954691	-0.01300974908269806	0.8504374188908188	0.7051443295054974	-0.3162374432611952	-0.1431570762710688	-0.7740525914699672	0.7721475653478318	0.7721475653476991	-0.08716358117393685	-0.174492185090376	0.1462099592874486	0.02886829567152573	0.4380089983402654	0.2718526975657036	0.4882891104809143	-2.338998103814476	0.0873227072508027	-0.6803914080130739	0.9127647580222088	-2.251996735309616	-2.251996735309456	-0.2166843360855354	-0.0008698893369042228	-0.4886191601485763	-0.07406704066420253	-0.1955616827590034	0.01692394620593349	-0.006669620817947158	-0.2093895133859731	0.06361626675327792	0.0452069645009423	0.265803154024134	-19.60652015816961	-18.60749186581575	5.261684993941312	-9.838119538410638	-641.7127562369569	-76.45315542176631	-15.48716073442406	0.001411407464479977	0.7342591854092696	-0.9882547584493275	-0.1691748257636242	0.5081619977532541	-0.3295368942938638	1.921982421722689	-0.3800961312452931	-0.3800961312453048	-0.19349543774725	0.02008385979538067	-0.1652885290584184	0.5422330500595056	5.759583874549373e-07	1.224613933370165e-06	-2.695094859152144e-06	-1.439683532495661e-07	7.541310135404037e-07	8.330500030401297e-07	4.690238466340552e-07
